<svg xmlns="http://www.w3.org/2000/svg" viewBox="0 0 64 64" width="64" height="64">
  <!-- Australia silhouette (simplified) -->
  <path d="M6,28 C6,26 8,22 11,20 C13,18 14,17 16,17 C17,17 18,18 19,17
           C20,16 20,15 22,14 C24,13 26,13 28,14 C30,15 31,14 33,13
           C35,12 37,12 39,13 C41,14 42,16 44,17 C45,17 46,16 47,17
           C48,18 48,20 49,21 C50,22 52,22 53,24 C54,26 54,28 53,30
           C52,32 51,33 51,35 C51,37 52,38 51,40 C50,42 48,43 47,44
           C46,45 44,46 42,46 C40,46 38,47 36,48 C34,49 32,50 30,50
           C28,50 26,49 24,48 C22,47 20,47 18,46 C16,45 14,44 12,42
           C10,40 9,38 8,36 C7,34 6,32 6,30 Z"
        fill="#2E5090" opacity="0.85"/>
  <!-- Tasmania -->
  <ellipse cx="42" cy="52" rx="4" ry="3" fill="#2E5090" opacity="0.85"/>
  <!-- Dice overlay (bottom-right) -->
  <rect x="34" y="24" width="24" height="24" rx="4" ry="4" fill="white" stroke="#2E5090" stroke-width="2"/>
  <!-- Dice dots - showing 5 (probability!) -->
  <circle cx="40" cy="30" r="2.2" fill="#2E5090"/>
  <circle cx="52" cy="30" r="2.2" fill="#2E5090"/>
  <circle cx="46" cy="36" r="2.2" fill="#2E5090"/>
  <circle cx="40" cy="42" r="2.2" fill="#2E5090"/>
  <circle cx="52" cy="42" r="2.2" fill="#2E5090"/>
  <!-- Southern Cross stars (small, on Australia) -->
  <polygon points="18,24 18.8,26.5 21.3,26.5 19.3,28 20,30.5 18,29 16,30.5 16.7,28 14.7,26.5 17.2,26.5" fill="white" opacity="0.9" transform="scale(0.5) translate(18,40)"/>
  <polygon points="18,24 18.8,26.5 21.3,26.5 19.3,28 20,30.5 18,29 16,30.5 16.7,28 14.7,26.5 17.2,26.5" fill="white" opacity="0.9" transform="scale(0.4) translate(40,55)"/>
  <polygon points="18,24 18.8,26.5 21.3,26.5 19.3,28 20,30.5 18,29 16,30.5 16.7,28 14.7,26.5 17.2,26.5" fill="white" opacity="0.9" transform="scale(0.4) translate(30,72)"/>
  <polygon points="18,24 18.8,26.5 21.3,26.5 19.3,28 20,30.5 18,29 16,30.5 16.7,28 14.7,26.5 17.2,26.5" fill="white" opacity="0.9" transform="scale(0.35) translate(55,68)"/>
</svg>
